<?xml version="1.0"?>
<svg xmlns:rdf="http://www.w3.org/1999/02/22-rdf-syntax-ns#" xmlns="http://www.w3.org/2000/svg" xmlns:cc="http://web.resource.org/cc/" xmlns:xlink="http://www.w3.org/1999/xlink" xmlns:dc="http://purl.org/dc/elements/1.1/" xmlns:svg="http://www.w3.org/2000/svg" id="svg1338" viewBox="0 0 954.24 439.97" version="1.0">
  <defs id="defs1341">
    <linearGradient id="linearGradient2810" y2="736.7" gradientUnits="userSpaceOnUse" y1="601.07" x2="612.72" x1="399.45">
      <stop id="stop2806" stop-color="#d2bcc4" offset="0"/>
      <stop id="stop2808" stop-color="#d2bcc4" stop-opacity="0" offset="1"/>
    </linearGradient>
    <linearGradient id="linearGradient2089" y2="798.81" gradientUnits="userSpaceOnUse" y1="718.81" gradientTransform="translate(87,-36)" x2="261.56" x1="154.92">
      <stop id="stop2085" stop-color="#e1d2d7" offset="0"/>
      <stop id="stop2087" stop-color="#e1d2d7" stop-opacity="0" offset="1"/>
    </linearGradient>
    <linearGradient id="linearGradient2826" y2="657.55" gradientUnits="userSpaceOnUse" y1="557.01" gradientTransform="translate(-.010002 -.84546)" x2="383.07" x1="389.22">
      <stop id="stop2093" stop-color="#a7abc7" offset="0"/>
      <stop id="stop2095" stop-color="#a7abc7" stop-opacity="0" offset="1"/>
    </linearGradient>
    <linearGradient id="linearGradient3560" y2="621.76" gradientUnits="userSpaceOnUse" y1="634.49" gradientTransform="translate(.29168 .58335)" x2="309.5" x1="201.5">
      <stop id="stop3556" stop-color="#e1d2d7" offset="0"/>
      <stop id="stop3558" stop-color="#e1d2d7" stop-opacity="0" offset="1"/>
    </linearGradient>
    <radialGradient id="radialGradient2861" gradientUnits="userSpaceOnUse" cy="570.12" cx="-289.91" gradientTransform="matrix(1 0 0 1.0645 0 -36.782)" r="43.841">
      <stop id="stop2857" stop-color="#d0b76d" offset="0"/>
      <stop id="stop2859" stop-color="#d0b76d" stop-opacity="0" offset="1"/>
    </radialGradient>
    <linearGradient id="linearGradient5973" y2="1520.4" gradientUnits="userSpaceOnUse" y1="487.02" gradientTransform="scale(2.0706 .48296)" x2="172.72" x1="224.24">
      <stop id="stop5969" stop-color="#afafaf" offset="0"/>
      <stop id="stop5971" stop-color="#afafaf" stop-opacity="0" offset="1"/>
    </linearGradient>
  </defs>
  <g id="g1965" transform="matrix(1.2804 0 0 1.357 -9.2638 -581.97)">
    <path id="path1347" d="m23.011 577.57s-2.503-1.67-3.653-3.2c-1.151-1.54-1.174-2.32-0.407-4.43s1.283-2.31 3.746-3.6c2.516-1.32 4.149-1.81 4.149-1.81l6.136-0.76 16.875-6.14 25.312-8.44 19.175-5.37 23.016-4.6 22.24-8.44 21.48-12.27 23.77-9.2 26.08-6.14 22.25-0.77 46.79 2.3 29.91 1.54 36.82 5.37 33.75 5.37 28.38 3.83 18.4 5.37 17.65 6.14 21.47 8.43 29.15 11.51 27.61 8.44 24.55 6.9 19.17 6.9 20.71 0.77 25.32 1.53 8.43-0.76 15.34-6.14 3.84-3.07 7.67 3.84 8.44 4.6 6.9 9.21 0.77 10.73 0.76 17.65-1.53 16.1-6.9 9.21-12.28 7.67-3.06 3.83-14.58-7.67-22.24-3.07h-38.35l-32.22 5.37-26.08 6.91-19.17 5.37-29.15 6.9-16.11 3.83 6.14 7.67 12.27 10.74 27.61 20.71-26.08-11.5-18.4-13.81-12.28-11.5-15.34 7.67-23.01 3.83-19.94 0.77-62.13-1.54-38.35-4.6-28.38-7.67-6.14-2.3-7.67 2.3-13.04 2.3-16.1-3.07-22.25-6.13s-13-1.14-25.84-4.57c-12.85-3.43-25.55-9.15-25.55-9.15l-17.84-5.39-21.727-3.08-20.26 0.71-15.659-1.23-14.523-4.09-16.607-6.95-11.622-7.67-2.7749-7.91 1.5969-3.42 12.033-8.61 1.534 7.67 3.068 2.3 8.437-3.07 11.506-0.77 6.136-0.77-9.971-10.73-11.506-9.97-7.67-6.91z" fill-rule="evenodd" stroke="#000" stroke-width="1px" fill="#fff"/>
    <path id="path4449" d="m187.95 557.99l47.73-1.06 78.66 12.2 76.11 16.26 87.94 11.5 185.88 9.81 0.71 6.01-1.24 13.96-0.44 2.21-6.98 8.84-12.11 7.51-3.09 3.98-14.59-7.69-22.1-3.09-38.8-0.09-32.26 5.57-89.63 22.98-10.87 2.39-15.55 7.6-22.99 3.53-18.03 1.06-32.35-0.88-30.4-0.71-39.25-4.42-34.82-9.72-21.04 4.24-16.61-3.18-21.57-6.01-20.33-3.18-14.67-3.89-17.5-7.25 4.77 0.18 25.1 3.36 22.1-3.54 4.42-3.18 2.3-5.13 0.35-3 5.66-2.83 9.19-7.78 0.35-7.42 6.37-5.84 3.35-8.48 0.18-6.37 0.53-5.12-1.06-4.07 1.59-7.6-1.59-4.77-22.27-12.2-1.06-4.77v0.17l0.35 0.18v0.18l-0.35-0.43" fill="url(#linearGradient5973)" fill-rule="evenodd"/>
    <path id="path1358" d="m188.49 558.27l47.12-2.11 78.52 12.59 76.36 16.27 86.99 11.29 186.51 9.71v20l-9 11.5-10.5 6.5-3 4.5-14.5-7.5-22.5-2.5h-37.5l-39.5 6-83.5 22-11.5 3-17 7.5-23 3.5-76.5-1.5-42-4-35.5-10-19.85 5s-20.31-4.71-38.27-9.65c-17.42-2.28-17-2.25-29.5-5.5s-21.38-7.85-21.38-7.85l10.5 0.5 17 1.94s17.28-2.04 24.21-4.47c3.81-1.35 2.4-3.8 5-9.5 5.08-3.37 15.29-9.97 15.29-9.97l1-7.5s2.89-3.78 7.09-9.36c4.17-5.55 2.09-21.83 2.09-21.83s2.41-6.33 0.66-10.33-1.87-2.88-7.84-5.98c-5.94-3.09-10.61-5.6-15.2-8.5-1.37-3.47-0.8-3.75-0.8-3.75z" fill="url(#linearGradient2826)" fill-rule="evenodd"/>
    <path id="path4332" d="m34.36 587.93l-0.157 2.51 1.907-0.97-1.75-1.54z" fill="#a29e9b" fill-rule="evenodd"/>
    <path id="path4330" d="m32.202 584.67l-0.847 3.98 3.213-1.11-2.366-2.87z" fill="#a29e9b" fill-rule="evenodd"/>
    <path id="path4328" d="m28.546 582.85l-0.248 4.06 3.012-1.57-2.764-2.49z" fill="#a29e9b" fill-rule="evenodd"/>
    <path id="path4326" d="m24.395 579.31l0.291 5.61 3.201-2.67-3.492-2.94z" fill="#a29e9b" fill-rule="evenodd"/>
    <path id="path3598" d="m19.798 575.45l0.897 7.38 3.619-3.81-4.516-3.57z" fill="#a29e9b" fill-rule="evenodd"/>
    <path id="path3574" d="m89.449 621.03c1.473 3.3 18.381 8.48 18.381 8.48s13.35 3.45 23.78 1.33 10.91-3.86 17.59-10.39c3.27-3.2 5.79-6.49 8.44-16.66 2.66-10.16 3.05-13.85 1.37-24.13-1.68-10.27-4.42-12.11-9.37-18.74-4.91-6.57-8.22-9.54-8.22-9.54l-15.38-15.29-8.84 3.09-38.181 9.02s-41.287 13.52-42.249 14.14c-0.973 0.62-2.122 2.56-2.829 4.77s-0.08 3.15 0.53 4.29c0.619 1.15 6.276 7.11 6.276 7.11l4.938 4.58s10.683 2.56 13.889 3.55c3.286 1.02 18.561 13.88 18.561 13.88s4.685 3.62 7.602 8.84c2.917 5.21 2.254 8.4 3.712 11.67z" fill-rule="evenodd" stroke="#000" stroke-width="1px" fill="#797359"/>
    <path id="path1351" d="m498.86 711.61l15.05 7.1 15.34 3.06 3.07-6.9 11.5-6.14 5.37-7.67 6.91-5.37 3.83-9.2 4.6-9.2 1.54-9.98v-6.13l-9.21-4.6-10.74-3.84-12.94-8.24-28.48 7.76-34.32 8.53-21.29 5.18-5.36 1.44 5.84 7.77 26.75 21.47 13.14 9.97 9.4 4.99z" stroke="#000" stroke-width="1px" fill="none"/>
    <path id="path1355" d="m223.59 669.58l-0.4 11.26 14.91 35.79s12.88 22.55 15.05 24.82c2.34 2.44 2.34 3.15 5.7 3.93 3.35 0.78 5.56 0.81 7.86-0.14 2.31-0.94 1.22-3.11 1.22-3.11l10.31 7.05s3.11 2.03 7.05 2.71c3.93 0.68 5.42 0.95 8.67 0 3.26-0.95 4.34-3.8 4.34-3.8s0.14 2.31 2.85 2.44c2.71 0.14 4.51-0.47 6.65-1.9 2.13-1.42 0.81-4.2 0.81-4.2s5.29 0.58 8-1.63c2.71-2.2 2.85-7.18 2.85-7.18v-7.6s3.61 0.81 5.5-1.5c1.9-2.3 1.9-5.15 1.09-7.59s-3.34-2.3-3.34-2.3-0.18-1.2 1.59-2.83c1.76-1.63 3.87-1.99 4.96-4.67 1.1-2.68 0-4.11-1.33-6.18-1.38-2.12-2.51-2.59-2.51-2.59l-3.25-2.17 3.79-4.88s0.67-0.76 1.55-3.13c0.9-2.41 1.22-2.71-1.09-4.88-2.3-2.17-7.51-3.92-7.51-3.92l-22.5-2.98-23.06-2.71-20.06-5.56-13.69-4.09-16.01 3.54z" stroke="#000" stroke-width="1px" fill="none"/>
    <path id="path1356" d="m640.29 566.93l51.26-34.64 37.83-20.16 17.32-4.95 3.19-0.35s0.7 0.71 0.7 2.12 0.36 11.31 0.36 11.31l-3.18 14.15-8.14 21.21-14.85 28.28-6.01 10.96-3.53 15.21 4.59 17.32 17.33 30.41 5.66 12.72 5.3 19.1 3.89 16.97-0.36 8.48-6.71 1.42-13.08-3.89-35.36-18.03-22.27-16.62-32.71-28.46 2.83-3.71 12.38-7.96 6.54-8.66 2.12-15.73-2.12-29-6.54-9.36-16.44-8.14z" fill-rule="evenodd" stroke="#000" stroke-width="1px" fill="#c7af8e"/>
    <path id="path1367" d="m45.703 583.13l13.047 3.48s6.75 2.88 12.75 7.75c6 4.88 9.069 8.68 11.5 11.38 2.313 2.56 2.563 2.56 4 5.62 1.438 3.06 1.5 7 1.5 7s-0.031 3-1.25 4.63c-1.219 1.62-1.914 1.65-3.625 1.87-1.718 0.23-9.565 0.45-13.25-0.37-3.625-0.82-3.694-1.27-5.938-3.75-2.271-2.51-7.161-10.04-7.161-10.04l-15.026-16.21-14.25-12.88-7.5-6.5s-2.625-2.19-1.938-4.37c0.688-2.19 1.204-2.66 4.313-4.38s4.719-1.87 8.687-2.56c3.859-0.67 5.938-1.44 5.938-1.44s-4.813 3.13-3.438 7.75c1.375 4.63 8.938 10.75 8.938 10.75l9.5 10.13 6.375 7.5 9.375 12.87 0.25-0.12" fill-rule="evenodd" stroke="#000" stroke-width="1px" fill="#797359"/>
    <path id="path2834" d="m91.407 589.47c3.917-0.05 6.5-1.03 8.132-2.01 1.591-0.96 2.971-2.17 3.771-4.23 0.82-2.15 1.73-5.03 0.99-8.46-0.74-3.42-2.73-4.83-3.77-5.64-1.104-0.85-1.834-1.81-5.553-2.41-3.719-0.61-7.283-0.59-9.52 0.4-2.281 1.01-4.905 3.7-5.951 6.04-0.992 2.22-1.317 6.98-0.396 9.26 0.892 2.22 2.776 4.08 4.76 5.24 2.028 1.18 3.62 1.86 7.537 1.81z" fill="#6f5932" fill-rule="evenodd"/>
    <path id="path2105" d="m91.394 587.97c3.491-0.04 5.793-0.9 7.247-1.77 1.419-0.84 2.649-1.9 3.359-3.71 0.74-1.89 1.55-4.42 0.88-7.42-0.66-3.01-2.43-4.25-3.355-4.95-0.985-0.76-1.635-1.6-4.949-2.13-3.315-0.53-6.492-0.51-8.486 0.36-2.033 0.88-4.371 3.25-5.303 5.3-0.884 1.95-1.174 6.13-0.354 8.13 0.796 1.95 2.475 3.58 4.243 4.6 1.807 1.04 3.226 1.63 6.718 1.59z" fill="#877163" fill-rule="evenodd"/>
    <path id="path2836" d="m-44.602 228.94a4.5962 4.5962 0 1 1 -0.012 0" transform="translate(135.41 344.01)" fill-rule="evenodd"/>
    <path id="path3584" d="m151.76 563.69s3.97 1.97 7.03 5.51 4.07 5.02 5.21 8.66c1.15 3.67 2.14 12.49 1.12 21.83-0.98 8.94-0.92 8.78-4.24 15.23-3.35 6.52-11.63 12.69-11.63 12.69s-2.24 5.32-5.99 7.38-6.78 2.34-8.01 2.12c-7.08-1.24-13-5.5-13-5.5l12.34-1.12s4.25-0.85 9.66-5.38 10.32-11.17 10.87-12.44c0.58-1.31 3.38-8.31 4.19-16.31s0.82-9.66-0.16-15.95c-0.99-6.3-3.54-11.47-3.54-11.47l-3.85-5.25z" fill-rule="evenodd" stroke="#000" stroke-width="1px" fill="#797359"/>
    <path id="path3592" d="m190.32 589.71s-4.35 7.7-9.04 16.71c-4.68 9.02-11.57 18.85-11.57 18.85s-4.51 7.16-10.61 10.96-7.49 3.23-13.44 3.18c-5.94-0.04-10.69-2.3-10.69-2.3s5.63 0.75 10.68-3.53c2.5-2.12 2.01-4.42 3.72-6.13 1.72-1.71 5.64-2.83 7.95-6.6 4.61-7.53 5.96-7.56 7.52-17.94 1.57-10.39 1.3-18.15-0.17-23.43-1.53-5.45-4.67-10.08-7.78-12.46-3.02-2.31-4.33-2.65-4.33-2.65l-16.27-18.47-9.81-9.64s12.36 0.73 22.45 2.3c10.1 1.57 9.11 0.62 17.68 4.24 8.58 3.63 11.23 5.13 16.62 10.26 5.39 5.12 5.1 8.86 6.19 9.98 1.12 1.18 20.44 10.82 22 12.64 1.53 1.77 2.57 6.26-0.97 14.23-3.53 7.98-6.07 9.99-13.61 17.42-7.53 7.42-10.45 7.71-16.88 11.66-6.43 3.96-8.84 4.16-8.84 4.16" fill-rule="evenodd" stroke="#000" stroke-width="1px" fill="#797359"/>
    <path id="path3599" d="m211.25 587.36s1.5 4 0.62 8.5c-0.87 4.5-4.12 9.5-4.12 9.5s-5.5 6.94-11.75 12.5-13.25 9.75-13.25 9.75l-15 7.5-8.19 2.25-4.56 1 9.06-6.06s2.52-2.77 7.32-9.06c0.61-0.81 19.09-8.63 25.74-15.63 14.68-15.41 14.13-20.25 14.13-20.25z" fill-rule="evenodd" stroke="#000" stroke-width="1px" fill="#89826f"/>
    <path id="path3604" d="m211.75 596.61s0.75 4.94-1 9.88c-1.75 4.93-1.94 4.72-6.5 9.37-4.56 4.66-10.25 10.13-10.25 10.13l-17.62 9.62-10.5 3.25s-13.76 2.33-13.26 1.25 15.26-5.56 15.26-5.56l10.24-4.81s11.57-6.63 19-13c7.44-6.38 12.13-12.88 12.13-12.88l2.5-7.25z" fill-rule="evenodd" stroke="#000" stroke-width="1px" fill="#9b9585"/>
    <path id="path3608" d="m202.25 618.47l-0.72 6.8-9.55 7.78-15.79 8.5-15.68 3.52-32.71 1.48-10.61-2.77 17.12-0.5 15.37-1.25 16.28-3.35 10.16-2.85 17.85-9.94 8.28-7.42z" fill-rule="evenodd" stroke="#000" stroke-width="1px" fill="#bcb8ae"/>
    <path id="path3614" d="m186.32 636.31s-0.39 5.15-3.22 8.13c-2.83 2.99-2.12 1.77-8.84 3.19-6.72 1.41-17.28 3.1-17.28 3.1l-28.64-3.89 32.53-1.77 14.77-3.29 10.68-5.47z" stroke="#000" stroke-width="1px" fill="none"/>
    <path id="path1348" d="m214.75 502.61l8.75-38.25 11-27.5s0.02 5.33 0.44 6.38c0.37 0.93 1.18 2 2.06 2.12 0.94 0.14 3 1.25 6.5-2s7.5-11 7.5-11 1.03 4.66 1.5 6c0.44 1.25 0.81 2.75 1.5 3 0.71 0.26 2.5 1.5 6.5-1.5s9.5-10.5 9.5-10.5-1.87 7.27-1.5 8.5c0.37 1.25 1.81 2.13 4.56 2.13s3.38-0.13 6.44-2.13 7.25-7 7.25-7-1.06 4.5-0.75 6.5 0.56 2.08 1.94 2.56c1.04 0.37 2.18-0.06 6.06-1.06 3.87-1 9.5-4 9.5-4s-2.63 4.63-3 7c-0.38 2.38 0.69 2.31 1.5 2.5 0.87 0.2 5.56 0.31 9.56-0.31 4-0.63 6.44-2.19 6.44-2.19s-1.8 5.34-1.44 6.13c0.38 0.81 0.69 1.56 2.44 1.87 1.85 0.33 3.62 1.38 7.5 0.5 3.87-0.87 8-4 8-4s-1.68 4.54-2 5.5c-0.31 0.94-0.44 2 0.06 2.81 0.51 0.83 0.69 1.94 5.44 2.19s14-1.5 14-1.5-3.53 5.45-4 6.5c-0.5 1.13 0 2.13 0.5 2.5 0.68 0.51 2.5 1.13 5.5 0.75 3-0.37 6.5-2.25 6.5-2.25s-2.59 6.69-2.5 8c0.06 0.88 0.19 1.38 1.56 1.44 1.38 0.06 11.44-0.44 11.44-0.44s-1.98 4.04-3.31 6.38c-1.32 2.31-1.44 2.5-0.69 3.62 0.7 1.06 2.31 0.81 5 0.5 2.68-0.31 6-0.5 6-0.5s-1.07 5.88-1 7c0.06 1 0.94 1.63 1.62 1.81 0.75 0.21 4.38-0.81 4.38-0.81s-0.83 4.77-0.56 5.63c0.25 0.81 1.12 1.39 1.93 1.62 0.88 0.25 4.63 0.25 4.63 0.25s-2 3.63-1 5.25c1 1.63 5 1.25 5 1.25s-0.94 2.19-2.19 3.75c-1.28 1.6-9.81 9.5-9.81 9.5l-70.25-10.5-67.75-4.25-28.25 0.25z" fill-rule="evenodd" stroke="#000" stroke-width="1px" fill="#e2d3d0"/>
    <path id="path1350" d="m399.94 519.19s15.04-15 25.06-23.83 11.46-9.38 15-11.5c3.57-2.13 10-5.57 13.16-6.94 3.13-1.36 8.3-2.84 13.84-2.56 5.58 0.29 11.09 0.58 24 4.5 12.87 3.93 15.65 3.93 28 10.5 12.36 6.59 11.37 8.13 20.5 16.5 9.12 8.38 16 17 16 17l13 14 16 12.5s-7.54 4.99-13.29 10.72c-5.76 5.74-9.74 12.23-9.74 12.23l-65.66-20.28-51.03-19.5-35.64-11.73-9.2-1.61z" fill-rule="evenodd" stroke="#000" stroke-width="1px" fill="#c7af8e"/>
    <path id="path1330" d="m188 558.36l48-1 78.5 12.5 75.5 16 89 11.5 71.5 4 59 3 54.75 3-0.5-23.25-7-8.75-16.25-8.25-3 2.25-15.5 7-10.5 0.5-43.75-2.5-71.37-22.25-58.38-22.25-30-10-99-13.25-65.75-4.25-29.25 0.75-28.5 5.75-24.25 9.25-20.5 12.25-14.5 5.25 33.75 4.75 10.25 4 11.25 6.75 6.5 7.25z" fill-rule="evenodd" stroke="#000" stroke-width="1px" fill="#797359"/>
    <path id="path1331" d="m221.85 502.59s1.46-13.08 3.54-24.4c2.08-11.31 2.39-10.65 4.77-20.86 2.39-10.21 4.25-19.97 4.25-19.97l-10.79 26.87-5.83 23.86-2.65 14.5h6.71z" fill-rule="evenodd" stroke="#000" stroke-width="1px" fill="#867e72"/>
    <path id="path1334" d="m231.75 502.06l4.6-26.7s3.36-14.14 7.07-24.92c3.71-10.79 7.78-18.21 7.78-18.21s-6.28 7.56-10.96 18.03c-4.69 10.47-7.78 23.87-7.78 23.87l-3 13.78-2.83 14.32 5.12-0.17z" fill-rule="evenodd" stroke="#000" stroke-width="1px" fill="#b8aba4"/>
    <path id="path1337" d="m241.12 502.23l1.42-9.19s2.3-7.78 5.83-16.62c3.54-8.84 8.31-18.73 8.31-18.73l10.61-20.16 1.94-6.54-4.95 5.66-9.72 16.26s-9.72 21.13-13.79 31.29c-4.42 12.33-3.89 18.03-3.89 18.03h4.24z" fill-rule="evenodd" stroke="#000" stroke-width="1px" fill="#b8aba4"/>
    <path id="path1340" d="m250.85 502.59l5.3 0.35s0.84-3.23 4.07-12.2c3.22-8.97 9.36-23.69 9.36-23.69l10.43-22.62 6.01-12.55s-2.6 0.97-9.01 12.37-16.09 33.06-16.09 33.06l-7.07 15.55-3 9.73z" fill-rule="evenodd" stroke="#000" stroke-width="1px" fill="#b8aba4"/>
    <path id="path1343" d="m269.05 503.82l6.72-17.5 17.86-34.11 9.54-16.98-3.36 1.42-17.5 27.05-12.73 26.69-4.77 12.73 4.24 0.7z" fill-rule="evenodd" stroke="#000" stroke-width="1px" fill="#b8aba4"/>
    <path id="path1345" d="m277.39 504.85l13.26-25.98s2.43-4.29 8.31-13.08c5.88-8.8 15.2-22.1 15.2-22.1l3.45-1.33-2.03 5.04-10.79 15.03-14.49 25.28-8.49 17.5-4.42-0.36z" fill-rule="evenodd" stroke="#000" stroke-width="1px" fill="#b8aba4"/>
    <path id="path1349" d="m289.91 505.42l22.98-33.59 17.86-23.16 3-1.41-1.94 5.12-6.54 9.37-15.38 20.33-14.67 23.51-5.31-0.17z" fill-rule="evenodd" stroke="#000" stroke-width="1px" fill="#b8aba4"/>
    <path id="path1352" d="m309.18 503.47l23.87-30.94 15.2-16.44 2.92-0.26-1.68 2.21-5.13 7.07s-8.71 10.25-16.62 20.68-15.02 21.04-15.02 21.04l-5.31-0.71 1.77-2.65z" fill-rule="evenodd" stroke="#000" stroke-width="1px" fill="#b8aba4"/>
    <path id="path1357" d="m321.03 507.89l15.02-19.09 12.02-15.03 8.14-8.93 3.88-1.5-4.15 5.75-6.28 7.86-12.55 16.44-12.02 15.03-4.06-0.53z" fill-rule="evenodd" stroke="#000" stroke-width="1px" fill="#b8aba4"/>
    <path id="path1361" d="m337.82 510.01c0.71-0.35 6.63-9.1 12.37-15.91 5.75-6.8 10.61-11.31 10.61-11.31l5.13-5.31 4.59-5.3-3.18-0.18-8.66 7.61-11.84 12.55-13.79 17.67 4.77 0.18z" fill-rule="evenodd" stroke="#000" stroke-width="1px" fill="#b8aba4"/>
    <path id="path1364" d="m349.25 511.86l13.63-15.12 14.24-14.25-5.5 0.25-14 14.5-13.12 14 4.75 0.62z" fill-rule="evenodd" stroke="#000" stroke-width="1px" fill="#b8aba4"/>
    <path id="path1368" d="m356.62 513.05l11.13-10.19 13.25-12 1.69-0.56-0.69 2.56s0.22 0.38-4.81 5.56c-5.03 5.19-15.31 15.19-15.31 15.19l-5.26-0.56z" fill-rule="evenodd" stroke="#000" stroke-width="1px" fill="#b8aba4"/>
    <path id="path1372" d="m382 516.24l8.62-8.5 2.44-3.69-2.81 0.06-13.5 11.5 5.25 0.63z" fill-rule="evenodd" stroke="#000" stroke-width="1px" fill="#b8aba4"/>
    <path id="path1376" d="m387.5 499.11l-8 8-7.44 7.94-4.56-0.69s5.5-5.76 10-10c4.5-4.23 8-6.94 8-6.94l3.06 0.13-1.06 1.56z" fill-rule="evenodd" stroke="#000" stroke-width="1px" fill="#b8aba4"/>
    <path id="path1346" d="m533.15 644.45l-89.59 22.94 5.89 7.71 19.31 15.61 19.01 14.64 25.64 13.12 15.56 3.04 3.68-7.08 10.93-5.66 5.87-8.23 6.77-5.57 8.17-17.25 1.64-9.81-0.18-6.46-9.14-5-10.92-3.94-12.64-8.06z" fill-rule="evenodd" stroke="#000" stroke-width="1px" fill="url(#linearGradient2810)"/>
    <path id="path1353" d="m223.27 669.54l-0.35 11.31 14.84 35.36 13.97 23.86 3.89 4.6 4.42 1.41h4.77s2.52-0.22 3.18-1.24c0.67-1.01-0.53-2.82-0.53-2.82l10.61 7.42 7.6 2.83 7.07 0.35 4.24-1.77 1.42-3.35 0.35 2.29s0.27 1.42 2.48 1.24 4.42-1.02 6.36-1.94c1.95-0.93 1.42-1.77 1.42-1.77l-0.89-2.65s3.27 1.06 6.01-0.18 3.58-0.71 4.95-4.77c1.37-4.07 0.53-11.49 0.53-11.49l3.71-0.53s2.08-0.71 2.83-2.66c0.75-1.94 0.75-3.04 0.18-5.12s-2.48-3.18-2.48-3.18-1.28 0.66-1.06 0c0.23-0.67 0.93-2.39 2.66-3.89 1.63-1.43 2.65-1.42 2.65-1.42s2.16-2.43 1.94-4.77-2.83-4.6-2.83-4.6l-4.77-3.89 3.36-4.77s2.21-3.14 1.94-5.48c-0.26-2.34-3-3.89-3-3.89l-7.43-3.18-43.66-4.77-34.12-10.08-16.26 3.54z" fill-rule="evenodd" stroke="#000" stroke-width="1px" fill="url(#linearGradient2089)"/>
    <path id="path1363" d="m646.3 644.36s15.6 15.07 29.34 26.69c13.74 11.63 13.92 11.36 25.28 19.45s20.15 12.9 20.15 12.9-8.26-5.34-19.09-13.96-11.45-8.97-24.22-20.51c-12.77-11.53-26.51-25.28-26.51-25.28l2.82-1.41s10.96 10.61 27.4 22.63 55.51 36.59 55.51 36.59l-53.91-39.42-26.17-22.63s20.33 14.58 35.53 23.59c15.21 9.02 35.18 20.96 35.18 20.96s-39.44-26.69-54.11-36.77-14.81-11.09-13.98-12.15c0.89-1.13 3.04 0.13 3.04 0.13l31.82 19.44 28.11 16.27-44.37-29.35-14.15-9.9 1.42-0.7 31.46 15.73 24.05 10.43-56.22-29.7 1.41-3.53s16.8 7.6 28.29 11.84 22.45 7.25 22.45 7.25l-52.15-23.34 2.12-2.12 26.87 7.96 11.32 1.94-39.6-14.14 25.37 0.25-26.08-6.62 0.71-2.65 21.45-0.09 11.45-0.95-34.32-1.96 24.29-6.08 7.37-3.11-30.24 4.24v-2.83s21.74-6.01 34.65-9.37c12.9-3.36 16.97-4.07 16.97-4.07s-5.48-1.06-18.39 1.42c-12.9 2.47-33.23 8.48-33.23 8.48l-0.71-2.12 39.6-14.14 17.68-6.36s-10.79 1.76-25.28 6.18c-14.5 4.42-32.71 11.49-32.71 11.49l-1.41-2.12 24.04-12.72 36.06-14.15-34.65 10.61-25.45 13.43-2.12-1.41s23.48-15.28 31.82-19.8c10.46-5.68 36.06-16.26 36.06-16.26s-27.18 6.61-38.89 12.73c-8.2 4.28-30.41 19.8-30.41 19.8l-2.82-1.42s24.08-16.62 35.35-23.33c11.29-6.73 52.5-29.35 52.5-29.35s-49.79 23.63-58.86 28.64c-8.97 4.95-31.12 21.21-31.12 21.21l-3.53-0.7s28.87-21.46 41.36-29.35c12.63-7.97 23.82-13.52 23.82-13.52l22.92-13.04s-32.47 15.95-47.27 25.15c-14.73 9.16-46.31 29.52-46.31 29.52l11.58 6.19 7.16 8.66 0.7 22.45 0.62 7.07-1.85 15.91-6.37 8.31-10.6 6.89z" fill="#3f3709" fill-rule="evenodd"/>
    <path id="path3562" d="m415 522.16l25-23.3 11-7-31.41 31.09 3.76 1.3 26.65-27.39 16-11.5-16 14-23.35 25.89 3.35 1.14 19-17.53 14.5-14.5 13.5-12.5-20.62 21.83-22.06 24.23 4.03 1.59 10.5-13.29 14.65-13.36 16.31-15.81 2.69-1.06-1.38 2.31-7.62 8.56-16 15.5-15.79 18.3 4.5 1.82 8.79-11.62 14.5-14 15.5-13 12.5-8.5s-2.62 3.94-9.88 11.06c-7.24 7.13-19.12 17.44-19.12 17.44l-18.62 19.83 3.68 1.61 8.94-10.44 15-14 26-19.5-18 17-17 16.5-12 12 5 2 20.5-20.5 23.5-21-16.5 20-17.5 16.5-5.85 6.06 4.14 1.47 16.71-17.03 15-15 14-9.5-17 17-24.74 26.42 4.71 1.64 15.53-17.06 17-15 12.5-7-30 30-10.5 10.5 4 1.5 15.5-16.5 26.5-21.5-22.5 23.5-14.24 16.62 6.06 2.47 14.93-18.46 16.75-16.13-6.5 11-20.41 24.98 3.64 1.03s12-13.45 20.45-20.95c8.44-7.5 13.32-9.06 13.32-9.06l-16.5 17.5-12.51 14.04 4.65 1.67s8.45-10.34 13.04-15.65c4.59-5.3 5.32-5.56 5.32-5.56s0.32 2.18-3.21 7.65c-3.53 5.46-10.91 14.21-10.91 14.21l4.15 1.47 14.97-15.33 7-7-8 13-10.27 10.98 5.53 1.94 11.74-14.42 14.5-13-15 17.5-8.06 10.48 3.5 0.94 9.59-12.12 12.47-10.8-12.5 17-6.32 6.8 4.61 1.56 15.21-16.86 3.5-4.5-10 16-4.74 6.45 3.23 1.64 6.51-9.59 9.5-9-7.62 10.5-6.18 8.77-43.89-13.79-17.91-5.48-44.43-17.15-36.47-12.55z" fill="#3f3709" fill-rule="evenodd"/>
    <path id="path4290" d="m405.5 519.11l12.25-12 19-15.5 10.75-5.75-10 8.75-14.75 12.75-9 8.5-4 4-4.25-0.75z" fill="#3f3709" fill-rule="evenodd"/>
    <path id="path1383" d="m25.279 628.45l13.082 5.66 15.026 4.24 15.026 1.24s18.119-0.89 21.036-0.53c2.755 0.33 21.741 3 21.741 3l6.19 2.12 9.72-0.88h8.31l14.85-1.24 4.07-1.06-1.24-1.76-8.13 0.35-6.37-1.24s-1.9-0.79-4.15-1.5c-2.26-0.71-2.96-0.49-5.83-1.68-2.88-1.19-5.4-3.18-5.4-3.18l-1.5-0.53s-5.06-0.27-9.9-1.24-9.46-2.65-9.46-2.65-9.233-4.02-11.045-4.95c-1.547-0.8-2.917-3.54-2.917-3.54s-0.397 1.95-1.06 3.36c-0.663 1.42-1.635 1.95-2.387 2.12-0.919 0.22-8.397 0.53-8.397 0.53l-6.364-0.53-3.889-1.59-1.06 0.71-10.784 2.83-12.728 1.59-10.783 0.53-5.657-0.18z" fill-rule="evenodd" stroke="#000" stroke-width="1px" fill="#9a9580"/>
    <path id="path1386" d="m13.258 605.56l8.132-5.83 1.591 7.42 3.094 2.47 8.308-2.91 17.855-1.59 5.038 5.3 2.209 3.36-18.119 3-13.259 0.53-6.717-1.85-4.508-3.63-2.563-3-1.061-3.27z" fill-rule="evenodd" stroke="#000" stroke-width="1px" fill="#3c1e1e"/>
    <path id="path1371" d="m59.439 613.76l-18.689 3.1-12.75 0.5-6.75-1.75-3.513-4.54-0.924-4.95 0.826-3.56-8.389 5.8-1.5 4.25 2.75 6.75 7 5.5 6.75 3 7.5 0.75 10.25-0.5 11-1.5 6.5-1.25 3.732-0.69 3.195-1.23-6.988-9.68z" fill-rule="evenodd" stroke="#000" stroke-width="1px" fill="#797359"/>
    <path id="path2114" d="m55.676 609.42l-15.152 2.77s-11.6 1.43-14.654 0.73c-1.527-0.35-3.722-3.57-4.034-4.36-0.157-0.4-2.464-5.02-2.611-6.99 1.356-0.99 1.867-1.26 1.867-1.26s0.591 4.08 1.932 6.4c1.341 2.33 1.526 2.48 3.078 2.54 1.559 0.07 8.435-2.28 8.435-2.28l17.043-1.78 4.096 4.23z" fill-rule="evenodd" stroke="#000" stroke-width="1px" fill="#e1e0dc"/>
    <path id="path4334" d="m29.734 613.97l-1.451 2.89 2.744-0.07-1.293-2.82z" fill="#a29e9b" fill-rule="evenodd"/>
    <path id="path2853" d="m-290.43 523.45a43.841 46.669 0 1 1 -0.11 0" fill="url(#radialGradient2861)" transform="matrix(-.43323 -.29511 .30281 -.44454 -172.73 767.34)" fill-rule="evenodd"/>
    <path id="path1396" d="m186.75 636.11l-1 3.5-2.13 4.13-3.24 3-23.38 3.87-26.75-3.5 3.63-1 27-1.12 15-3.5 10.87-5.38z" fill-rule="evenodd" stroke="#000" stroke-width="1px" fill="#d1cec7"/>
    <path id="path5068" d="m35.249 613.67l-1.121 2.89 2.119-0.07-0.998-2.82z" fill="#a29e9b" fill-rule="evenodd"/>
    <path id="path5070" d="m41.122 613.35l-1.303 3.06 3.277-0.41-1.974-2.65z" fill="#a29e9b" fill-rule="evenodd"/>
    <path id="path5072" d="m46.883 612.42l-1.047 3.06 2.71-0.44-1.663-2.62z" fill="#a29e9b" fill-rule="evenodd"/>
    <path id="path5074" d="m25.565 613.79l-1.705 1.99 1.942 0.37-0.237-2.36z" fill="#a29e9b" fill-rule="evenodd"/>
    <path id="path5076" d="m38.139 603.04l-1.191 3.01 2.728-0.31-1.537-2.7z" fill="#a29e9b" fill-rule="evenodd"/>
    <path id="path5078" d="m42.561 602.6l-1.121 2.96 2.12-0.19-0.999-2.77z" fill="#a29e9b" fill-rule="evenodd"/>
    <path id="path5080" d="m34.005 603.58l-1.047 3.06 2.709-0.43-1.662-2.63z" fill="#a29e9b" fill-rule="evenodd"/>
    <path id="path5082" d="m29.128 604.98l-0.069 3.1 1.97-0.78-1.901-2.32z" fill="#a29e9b" fill-rule="evenodd"/>
    <path id="path3623" d="m202.29 626.45l25.5-11 28.25-7.25 21.25-1.25 20 2.75 10 5.5 2 7.75-6.25 15.25-9.75 14.75-9.5 9-17 1.25-21.75-4.5-20-6.75-14.5-3.25-0.25-14.25-0.25 0.5" fill-rule="evenodd" stroke="#000" stroke-width="1px" fill="url(#linearGradient3560)"/>
    <path id="path3625" d="m205.5 630.36l20.25-9 19.37-6.75 12.38-3.62 12-4-12.5 0.5-28.13 7-26.62 11.87 3.25 4z" stroke="#000" stroke-width="1px" fill="none"/>
  </g>
  <metadata>
    <rdf:RDF>
      <cc:Work>
        <dc:format>image/svg+xml</dc:format>
        <dc:type rdf:resource="http://purl.org/dc/dcmitype/StillImage"/>
        <cc:license rdf:resource="http://creativecommons.org/licenses/publicdomain/"/>
        <dc:publisher>
          <cc:Agent rdf:about="http://openclipart.org/">
            <dc:title>Openclipart</dc:title>
          </cc:Agent>
        </dc:publisher>
        <dc:title>pikeperch</dc:title>
        <dc:date>2007-01-01T03:43:48</dc:date>
        <dc:description>animal, animal, cartoon, cartoon, clip art, clipart, fish, fish, image, media, nature, nature, pike, pike, png, public domain, svg, </dc:description>
        <dc:source>http://openclipart.org/detail/2679/pikeperch-by-machovka</dc:source>
        <dc:creator>
          <cc:Agent>
            <dc:title>Machovka</dc:title>
          </cc:Agent>
        </dc:creator>
        <dc:subject>
          <rdf:Bag>
            <rdf:li>animal</rdf:li>
            <rdf:li>cartoon</rdf:li>
            <rdf:li>clip art</rdf:li>
            <rdf:li>clipart</rdf:li>
            <rdf:li>fish</rdf:li>
            <rdf:li>image</rdf:li>
            <rdf:li>media</rdf:li>
            <rdf:li>nature</rdf:li>
            <rdf:li>pike</rdf:li>
            <rdf:li>png</rdf:li>
            <rdf:li>public domain</rdf:li>
            <rdf:li>svg</rdf:li>
          </rdf:Bag>
        </dc:subject>
      </cc:Work>
      <cc:License rdf:about="http://creativecommons.org/licenses/publicdomain/">
        <cc:permits rdf:resource="http://creativecommons.org/ns#Reproduction"/>
        <cc:permits rdf:resource="http://creativecommons.org/ns#Distribution"/>
        <cc:permits rdf:resource="http://creativecommons.org/ns#DerivativeWorks"/>
      </cc:License>
    </rdf:RDF>
  </metadata>
</svg>
